<mxfile host="Electron" agent="Mozilla/5.0 (Windows NT 10.0; Win64; x64) AppleWebKit/537.36 (KHTML, like Gecko) draw.io/28.1.2 Chrome/138.0.7204.243 Electron/37.4.0 Safari/537.36" version="28.1.2">
  <diagram name="Seite-1" id="vMk5bk8u48FVltnFuutd">
    <mxGraphModel dx="1783" dy="1051" grid="1" gridSize="10" guides="1" tooltips="1" connect="1" arrows="0" fold="1" page="1" pageScale="1" pageWidth="4681" pageHeight="3300" math="0" shadow="0">
      <root>
        <mxCell id="0" />
        <mxCell id="1" parent="0" />
        <mxCell id="wx6ul4WBU41h2ZuDPQCp-3" value="&lt;b&gt;Nutzer&lt;/b&gt;" style="swimlane;fontStyle=0;childLayout=stackLayout;horizontal=1;startSize=30;horizontalStack=0;resizeParent=1;resizeParentMax=0;resizeLast=0;collapsible=1;marginBottom=0;whiteSpace=wrap;html=1;" parent="1" vertex="1">
          <mxGeometry x="400" y="400" width="140" height="600" as="geometry" />
        </mxCell>
        <mxCell id="wx6ul4WBU41h2ZuDPQCp-10" value="&lt;u&gt;Nutzer ID&lt;/u&gt;" style="rounded=0;whiteSpace=wrap;html=1;" parent="wx6ul4WBU41h2ZuDPQCp-3" vertex="1">
          <mxGeometry y="30" width="140" height="30" as="geometry" />
        </mxCell>
        <mxCell id="wx6ul4WBU41h2ZuDPQCp-12" value="Name" style="rounded=0;whiteSpace=wrap;html=1;" parent="wx6ul4WBU41h2ZuDPQCp-3" vertex="1">
          <mxGeometry y="60" width="140" height="30" as="geometry" />
        </mxCell>
        <mxCell id="BZC8KsCl4TNFc6Lqy8Sw-45" value="Sichtbarkeit ID&lt;div&gt;[Name]&lt;/div&gt;" style="rounded=0;whiteSpace=wrap;html=1;" vertex="1" parent="wx6ul4WBU41h2ZuDPQCp-3">
          <mxGeometry y="90" width="140" height="40" as="geometry" />
        </mxCell>
        <mxCell id="wx6ul4WBU41h2ZuDPQCp-8" value="Benutzername&lt;div&gt;/&lt;/div&gt;&lt;div&gt;Anzeige Name&lt;/div&gt;" style="rounded=0;whiteSpace=wrap;html=1;" parent="wx6ul4WBU41h2ZuDPQCp-3" vertex="1">
          <mxGeometry y="130" width="140" height="50" as="geometry" />
        </mxCell>
        <mxCell id="wx6ul4WBU41h2ZuDPQCp-11" value="Standort" style="rounded=0;whiteSpace=wrap;html=1;" parent="wx6ul4WBU41h2ZuDPQCp-3" vertex="1">
          <mxGeometry y="180" width="140" height="30" as="geometry" />
        </mxCell>
        <mxCell id="BZC8KsCl4TNFc6Lqy8Sw-46" value="&lt;i&gt;Sichtbarkeit ID&lt;/i&gt;&lt;div&gt;&lt;i&gt;[Standort]&lt;/i&gt;&lt;/div&gt;" style="rounded=0;whiteSpace=wrap;html=1;" vertex="1" parent="wx6ul4WBU41h2ZuDPQCp-3">
          <mxGeometry y="210" width="140" height="40" as="geometry" />
        </mxCell>
        <mxCell id="wx6ul4WBU41h2ZuDPQCp-7" value="Passwort" style="rounded=0;whiteSpace=wrap;html=1;" parent="wx6ul4WBU41h2ZuDPQCp-3" vertex="1">
          <mxGeometry y="250" width="140" height="30" as="geometry" />
        </mxCell>
        <mxCell id="wx6ul4WBU41h2ZuDPQCp-15" value="Dateipfad Profilbild" style="rounded=0;whiteSpace=wrap;html=1;" parent="wx6ul4WBU41h2ZuDPQCp-3" vertex="1">
          <mxGeometry y="280" width="140" height="30" as="geometry" />
        </mxCell>
        <mxCell id="BZC8KsCl4TNFc6Lqy8Sw-44" value="&lt;i&gt;Sichtbarkeit ID&lt;/i&gt;&lt;div&gt;&lt;i&gt;[Profilbild]&lt;/i&gt;&lt;/div&gt;" style="rounded=0;whiteSpace=wrap;html=1;" vertex="1" parent="wx6ul4WBU41h2ZuDPQCp-3">
          <mxGeometry y="310" width="140" height="40" as="geometry" />
        </mxCell>
        <mxCell id="wx6ul4WBU41h2ZuDPQCp-9" value="E-Mail-Adresse" style="rounded=0;whiteSpace=wrap;html=1;" parent="wx6ul4WBU41h2ZuDPQCp-3" vertex="1">
          <mxGeometry y="350" width="140" height="30" as="geometry" />
        </mxCell>
        <mxCell id="wx6ul4WBU41h2ZuDPQCp-16" value="E-Mail-Adresse (alt)" style="rounded=0;whiteSpace=wrap;html=1;" parent="wx6ul4WBU41h2ZuDPQCp-3" vertex="1">
          <mxGeometry y="380" width="140" height="30" as="geometry" />
        </mxCell>
        <mxCell id="BZC8KsCl4TNFc6Lqy8Sw-47" value="&lt;i&gt;Sichtbarkeit ID&lt;/i&gt;&lt;div&gt;&lt;i&gt;[E-Mail-Adresse]&lt;/i&gt;&lt;/div&gt;" style="rounded=0;whiteSpace=wrap;html=1;" vertex="1" parent="wx6ul4WBU41h2ZuDPQCp-3">
          <mxGeometry y="410" width="140" height="40" as="geometry" />
        </mxCell>
        <mxCell id="wx6ul4WBU41h2ZuDPQCp-13" value="Mobil-Nummer" style="rounded=0;whiteSpace=wrap;html=1;" parent="wx6ul4WBU41h2ZuDPQCp-3" vertex="1">
          <mxGeometry y="450" width="140" height="30" as="geometry" />
        </mxCell>
        <mxCell id="BZC8KsCl4TNFc6Lqy8Sw-48" value="&lt;i&gt;Sichtbarkeit ID&lt;/i&gt;&lt;div&gt;&lt;i&gt;[Mobil-Nummer]&lt;/i&gt;&lt;/div&gt;" style="rounded=0;whiteSpace=wrap;html=1;" vertex="1" parent="wx6ul4WBU41h2ZuDPQCp-3">
          <mxGeometry y="480" width="140" height="40" as="geometry" />
        </mxCell>
        <mxCell id="BZC8KsCl4TNFc6Lqy8Sw-154" value="&lt;i&gt;Status ID&lt;/i&gt;&lt;div&gt;&lt;i&gt;[Aktiv]&lt;/i&gt;&lt;/div&gt;" style="rounded=0;whiteSpace=wrap;html=1;" vertex="1" parent="wx6ul4WBU41h2ZuDPQCp-3">
          <mxGeometry y="520" width="140" height="40" as="geometry" />
        </mxCell>
        <mxCell id="BZC8KsCl4TNFc6Lqy8Sw-173" value="&lt;i&gt;Sichtbarkeit ID&lt;/i&gt;&lt;div&gt;&lt;i&gt;[Status]&lt;/i&gt;&lt;/div&gt;" style="rounded=0;whiteSpace=wrap;html=1;" vertex="1" parent="wx6ul4WBU41h2ZuDPQCp-3">
          <mxGeometry y="560" width="140" height="40" as="geometry" />
        </mxCell>
        <mxCell id="BZC8KsCl4TNFc6Lqy8Sw-1" value="&lt;b&gt;Projekt&lt;/b&gt;" style="swimlane;fontStyle=0;childLayout=stackLayout;horizontal=1;startSize=30;horizontalStack=0;resizeParent=1;resizeParentMax=0;resizeLast=0;collapsible=1;marginBottom=0;whiteSpace=wrap;html=1;" vertex="1" parent="1">
          <mxGeometry x="720" y="400" width="140" height="240" as="geometry" />
        </mxCell>
        <mxCell id="BZC8KsCl4TNFc6Lqy8Sw-2" value="&lt;u&gt;Projekt ID&lt;/u&gt;" style="rounded=0;whiteSpace=wrap;html=1;" vertex="1" parent="BZC8KsCl4TNFc6Lqy8Sw-1">
          <mxGeometry y="30" width="140" height="30" as="geometry" />
        </mxCell>
        <mxCell id="BZC8KsCl4TNFc6Lqy8Sw-31" value="&lt;i&gt;Leiter ID&lt;/i&gt;&lt;div&gt;&lt;i&gt;[Nutzer ID]&lt;/i&gt;&lt;/div&gt;" style="rounded=0;whiteSpace=wrap;html=1;" vertex="1" parent="BZC8KsCl4TNFc6Lqy8Sw-1">
          <mxGeometry y="60" width="140" height="40" as="geometry" />
        </mxCell>
        <mxCell id="BZC8KsCl4TNFc6Lqy8Sw-32" value="&lt;i&gt;Teilnehmer ID Projekt&lt;/i&gt;" style="rounded=0;whiteSpace=wrap;html=1;" vertex="1" parent="BZC8KsCl4TNFc6Lqy8Sw-1">
          <mxGeometry y="100" width="140" height="30" as="geometry" />
        </mxCell>
        <mxCell id="BZC8KsCl4TNFc6Lqy8Sw-33" value="Projektname" style="rounded=0;whiteSpace=wrap;html=1;" vertex="1" parent="BZC8KsCl4TNFc6Lqy8Sw-1">
          <mxGeometry y="130" width="140" height="30" as="geometry" />
        </mxCell>
        <mxCell id="BZC8KsCl4TNFc6Lqy8Sw-153" value="&lt;i&gt;Status ID&lt;/i&gt;&lt;div&gt;&lt;i&gt;[Fortschritt]&lt;/i&gt;&lt;/div&gt;" style="rounded=0;whiteSpace=wrap;html=1;" vertex="1" parent="BZC8KsCl4TNFc6Lqy8Sw-1">
          <mxGeometry y="160" width="140" height="40" as="geometry" />
        </mxCell>
        <mxCell id="BZC8KsCl4TNFc6Lqy8Sw-34" value="&lt;i&gt;Sichtbarkeit ID&lt;/i&gt;&lt;div&gt;&lt;i&gt;[Projekt]&lt;/i&gt;&lt;/div&gt;" style="rounded=0;whiteSpace=wrap;html=1;" vertex="1" parent="BZC8KsCl4TNFc6Lqy8Sw-1">
          <mxGeometry y="200" width="140" height="40" as="geometry" />
        </mxCell>
        <mxCell id="BZC8KsCl4TNFc6Lqy8Sw-11" value="&lt;b&gt;Liste&lt;/b&gt;" style="swimlane;fontStyle=0;childLayout=stackLayout;horizontal=1;startSize=30;horizontalStack=0;resizeParent=1;resizeParentMax=0;resizeLast=0;collapsible=1;marginBottom=0;whiteSpace=wrap;html=1;" vertex="1" parent="1">
          <mxGeometry x="1040" y="400" width="140" height="120" as="geometry" />
        </mxCell>
        <mxCell id="BZC8KsCl4TNFc6Lqy8Sw-12" value="&lt;u&gt;Liste ID&lt;/u&gt;" style="rounded=0;whiteSpace=wrap;html=1;" vertex="1" parent="BZC8KsCl4TNFc6Lqy8Sw-11">
          <mxGeometry y="30" width="140" height="30" as="geometry" />
        </mxCell>
        <mxCell id="BZC8KsCl4TNFc6Lqy8Sw-35" value="&lt;i&gt;Projekt ID&lt;/i&gt;" style="rounded=0;whiteSpace=wrap;html=1;" vertex="1" parent="BZC8KsCl4TNFc6Lqy8Sw-11">
          <mxGeometry y="60" width="140" height="30" as="geometry" />
        </mxCell>
        <mxCell id="BZC8KsCl4TNFc6Lqy8Sw-36" value="Listenname" style="rounded=0;whiteSpace=wrap;html=1;" vertex="1" parent="BZC8KsCl4TNFc6Lqy8Sw-11">
          <mxGeometry y="90" width="140" height="30" as="geometry" />
        </mxCell>
        <mxCell id="BZC8KsCl4TNFc6Lqy8Sw-21" value="&lt;b&gt;Feld&lt;/b&gt;" style="swimlane;fontStyle=0;childLayout=stackLayout;horizontal=1;startSize=30;horizontalStack=0;resizeParent=1;resizeParentMax=0;resizeLast=0;collapsible=1;marginBottom=0;whiteSpace=wrap;html=1;" vertex="1" parent="1">
          <mxGeometry x="1320" y="400" width="140" height="280" as="geometry" />
        </mxCell>
        <mxCell id="BZC8KsCl4TNFc6Lqy8Sw-22" value="&lt;u&gt;Feld ID&lt;/u&gt;&lt;div&gt;&lt;u&gt;[Projekt ID + Liste ID]&lt;/u&gt;&lt;/div&gt;" style="rounded=0;whiteSpace=wrap;html=1;" vertex="1" parent="BZC8KsCl4TNFc6Lqy8Sw-21">
          <mxGeometry y="30" width="140" height="40" as="geometry" />
        </mxCell>
        <mxCell id="BZC8KsCl4TNFc6Lqy8Sw-37" value="&lt;i&gt;Liste ID&lt;/i&gt;" style="rounded=0;whiteSpace=wrap;html=1;" vertex="1" parent="BZC8KsCl4TNFc6Lqy8Sw-21">
          <mxGeometry y="70" width="140" height="30" as="geometry" />
        </mxCell>
        <mxCell id="BZC8KsCl4TNFc6Lqy8Sw-41" value="&lt;i&gt;Teilnehmer ID&lt;/i&gt;" style="rounded=0;whiteSpace=wrap;html=1;" vertex="1" parent="BZC8KsCl4TNFc6Lqy8Sw-21">
          <mxGeometry y="100" width="140" height="30" as="geometry" />
        </mxCell>
        <mxCell id="BZC8KsCl4TNFc6Lqy8Sw-38" value="Feldname" style="rounded=0;whiteSpace=wrap;html=1;" vertex="1" parent="BZC8KsCl4TNFc6Lqy8Sw-21">
          <mxGeometry y="130" width="140" height="30" as="geometry" />
        </mxCell>
        <mxCell id="BZC8KsCl4TNFc6Lqy8Sw-39" value="Datum&lt;div&gt;/&lt;div&gt;Termin&lt;/div&gt;&lt;/div&gt;" style="rounded=0;whiteSpace=wrap;html=1;" vertex="1" parent="BZC8KsCl4TNFc6Lqy8Sw-21">
          <mxGeometry y="160" width="140" height="50" as="geometry" />
        </mxCell>
        <mxCell id="BZC8KsCl4TNFc6Lqy8Sw-40" value="Kommentar" style="rounded=0;whiteSpace=wrap;html=1;" vertex="1" parent="BZC8KsCl4TNFc6Lqy8Sw-21">
          <mxGeometry y="210" width="140" height="30" as="geometry" />
        </mxCell>
        <mxCell id="BZC8KsCl4TNFc6Lqy8Sw-43" value="&lt;i&gt;Status ID&lt;/i&gt;&lt;div&gt;&lt;i&gt;[Fortschritt]&lt;/i&gt;&lt;/div&gt;" style="rounded=0;whiteSpace=wrap;html=1;" vertex="1" parent="BZC8KsCl4TNFc6Lqy8Sw-21">
          <mxGeometry y="240" width="140" height="40" as="geometry" />
        </mxCell>
        <mxCell id="BZC8KsCl4TNFc6Lqy8Sw-49" value="&lt;b&gt;Kollegen&lt;/b&gt;" style="swimlane;fontStyle=0;childLayout=stackLayout;horizontal=1;startSize=30;horizontalStack=0;resizeParent=1;resizeParentMax=0;resizeLast=0;collapsible=1;marginBottom=0;whiteSpace=wrap;html=1;" vertex="1" parent="1">
          <mxGeometry x="20" y="400" width="140" height="180" as="geometry" />
        </mxCell>
        <mxCell id="BZC8KsCl4TNFc6Lqy8Sw-50" value="&lt;u&gt;Kollegen ID&lt;/u&gt;&lt;div&gt;&lt;u&gt;[Nutzer ID + Nutzer ID]&lt;/u&gt;&lt;/div&gt;" style="rounded=0;whiteSpace=wrap;html=1;" vertex="1" parent="BZC8KsCl4TNFc6Lqy8Sw-49">
          <mxGeometry y="30" width="140" height="40" as="geometry" />
        </mxCell>
        <mxCell id="BZC8KsCl4TNFc6Lqy8Sw-52" value="&lt;i&gt;Nutzer ID&lt;/i&gt;" style="rounded=0;whiteSpace=wrap;html=1;" vertex="1" parent="BZC8KsCl4TNFc6Lqy8Sw-49">
          <mxGeometry y="70" width="140" height="30" as="geometry" />
        </mxCell>
        <mxCell id="BZC8KsCl4TNFc6Lqy8Sw-155" value="&lt;i&gt;Status ID&lt;/i&gt;&lt;div&gt;&lt;i&gt;[Favorit]&lt;/i&gt;&lt;/div&gt;" style="rounded=0;whiteSpace=wrap;html=1;" vertex="1" parent="BZC8KsCl4TNFc6Lqy8Sw-49">
          <mxGeometry y="100" width="140" height="40" as="geometry" />
        </mxCell>
        <mxCell id="BZC8KsCl4TNFc6Lqy8Sw-156" value="&lt;i&gt;Status ID&lt;/i&gt;&lt;div&gt;&lt;i&gt;[Kollege]&lt;/i&gt;&lt;/div&gt;" style="rounded=0;whiteSpace=wrap;html=1;" vertex="1" parent="BZC8KsCl4TNFc6Lqy8Sw-49">
          <mxGeometry y="140" width="140" height="40" as="geometry" />
        </mxCell>
        <mxCell id="BZC8KsCl4TNFc6Lqy8Sw-56" value="&lt;b&gt;Aktivitäten&lt;/b&gt;" style="swimlane;fontStyle=0;childLayout=stackLayout;horizontal=1;startSize=30;horizontalStack=0;resizeParent=1;resizeParentMax=0;resizeLast=0;collapsible=1;marginBottom=0;whiteSpace=wrap;html=1;" vertex="1" parent="1">
          <mxGeometry x="150" y="600" width="140" height="290" as="geometry" />
        </mxCell>
        <mxCell id="BZC8KsCl4TNFc6Lqy8Sw-57" value="&lt;u&gt;Aktivitäten ID&lt;/u&gt;" style="rounded=0;whiteSpace=wrap;html=1;" vertex="1" parent="BZC8KsCl4TNFc6Lqy8Sw-56">
          <mxGeometry y="30" width="140" height="30" as="geometry" />
        </mxCell>
        <mxCell id="BZC8KsCl4TNFc6Lqy8Sw-59" value="&lt;i&gt;Teilnehmer ID Verursacher&lt;/i&gt;" style="rounded=0;whiteSpace=wrap;html=1;" vertex="1" parent="BZC8KsCl4TNFc6Lqy8Sw-56">
          <mxGeometry y="60" width="140" height="40" as="geometry" />
        </mxCell>
        <mxCell id="BZC8KsCl4TNFc6Lqy8Sw-64" value="&lt;i&gt;Teilnehmer ID&lt;/i&gt;&lt;div&gt;&lt;i&gt;Betroffener&lt;/i&gt;&lt;/div&gt;" style="rounded=0;whiteSpace=wrap;html=1;" vertex="1" parent="BZC8KsCl4TNFc6Lqy8Sw-56">
          <mxGeometry y="100" width="140" height="40" as="geometry" />
        </mxCell>
        <mxCell id="BZC8KsCl4TNFc6Lqy8Sw-68" value="&lt;i&gt;Projekt ID&lt;/i&gt;" style="rounded=0;whiteSpace=wrap;html=1;" vertex="1" parent="BZC8KsCl4TNFc6Lqy8Sw-56">
          <mxGeometry y="140" width="140" height="30" as="geometry" />
        </mxCell>
        <mxCell id="BZC8KsCl4TNFc6Lqy8Sw-69" value="&lt;i&gt;Liste ID&lt;/i&gt;" style="rounded=0;whiteSpace=wrap;html=1;" vertex="1" parent="BZC8KsCl4TNFc6Lqy8Sw-56">
          <mxGeometry y="170" width="140" height="30" as="geometry" />
        </mxCell>
        <mxCell id="BZC8KsCl4TNFc6Lqy8Sw-70" value="&lt;i&gt;Feld ID&lt;/i&gt;" style="rounded=0;whiteSpace=wrap;html=1;" vertex="1" parent="BZC8KsCl4TNFc6Lqy8Sw-56">
          <mxGeometry y="200" width="140" height="30" as="geometry" />
        </mxCell>
        <mxCell id="BZC8KsCl4TNFc6Lqy8Sw-60" value="Datum" style="rounded=0;whiteSpace=wrap;html=1;" vertex="1" parent="BZC8KsCl4TNFc6Lqy8Sw-56">
          <mxGeometry y="230" width="140" height="30" as="geometry" />
        </mxCell>
        <mxCell id="BZC8KsCl4TNFc6Lqy8Sw-67" value="Uhrzeit" style="rounded=0;whiteSpace=wrap;html=1;" vertex="1" parent="BZC8KsCl4TNFc6Lqy8Sw-56">
          <mxGeometry y="260" width="140" height="30" as="geometry" />
        </mxCell>
        <mxCell id="BZC8KsCl4TNFc6Lqy8Sw-74" value="" style="endArrow=none;html=1;rounded=0;exitX=1;exitY=0;exitDx=0;exitDy=0;entryX=0;entryY=0;entryDx=0;entryDy=0;" edge="1" parent="1" source="wx6ul4WBU41h2ZuDPQCp-3" target="BZC8KsCl4TNFc6Lqy8Sw-1">
          <mxGeometry width="50" height="50" relative="1" as="geometry">
            <mxPoint x="640" y="380" as="sourcePoint" />
            <mxPoint x="690" y="330" as="targetPoint" />
          </mxGeometry>
        </mxCell>
        <mxCell id="BZC8KsCl4TNFc6Lqy8Sw-83" value="1" style="edgeLabel;html=1;align=center;verticalAlign=middle;resizable=0;points=[];" vertex="1" connectable="0" parent="BZC8KsCl4TNFc6Lqy8Sw-74">
          <mxGeometry x="-0.7417" relative="1" as="geometry">
            <mxPoint x="-1" y="-10" as="offset" />
          </mxGeometry>
        </mxCell>
        <mxCell id="BZC8KsCl4TNFc6Lqy8Sw-84" value="n" style="edgeLabel;html=1;align=center;verticalAlign=middle;resizable=0;points=[];" vertex="1" connectable="0" parent="BZC8KsCl4TNFc6Lqy8Sw-74">
          <mxGeometry x="0.8" relative="1" as="geometry">
            <mxPoint x="-1" y="-10" as="offset" />
          </mxGeometry>
        </mxCell>
        <mxCell id="BZC8KsCl4TNFc6Lqy8Sw-85" value="1 Nutzer&lt;div&gt;hat&lt;/div&gt;&lt;div&gt;n Projekte&lt;/div&gt;" style="edgeLabel;html=1;align=center;verticalAlign=middle;resizable=0;points=[];" vertex="1" connectable="0" parent="BZC8KsCl4TNFc6Lqy8Sw-74">
          <mxGeometry x="-0.075" relative="1" as="geometry">
            <mxPoint x="-1" as="offset" />
          </mxGeometry>
        </mxCell>
        <mxCell id="BZC8KsCl4TNFc6Lqy8Sw-75" value="" style="endArrow=none;html=1;rounded=0;exitX=1;exitY=0;exitDx=0;exitDy=0;entryX=0;entryY=0;entryDx=0;entryDy=0;" edge="1" parent="1" source="BZC8KsCl4TNFc6Lqy8Sw-1" target="BZC8KsCl4TNFc6Lqy8Sw-11">
          <mxGeometry width="50" height="50" relative="1" as="geometry">
            <mxPoint x="1160" y="280" as="sourcePoint" />
            <mxPoint x="1210" y="230" as="targetPoint" />
          </mxGeometry>
        </mxCell>
        <mxCell id="BZC8KsCl4TNFc6Lqy8Sw-89" value="1" style="edgeLabel;html=1;align=center;verticalAlign=middle;resizable=0;points=[];" vertex="1" connectable="0" parent="BZC8KsCl4TNFc6Lqy8Sw-75">
          <mxGeometry x="-0.7833" relative="1" as="geometry">
            <mxPoint x="-1" y="-10" as="offset" />
          </mxGeometry>
        </mxCell>
        <mxCell id="BZC8KsCl4TNFc6Lqy8Sw-90" value="n" style="edgeLabel;html=1;align=center;verticalAlign=middle;resizable=0;points=[];" vertex="1" connectable="0" parent="BZC8KsCl4TNFc6Lqy8Sw-75">
          <mxGeometry x="0.8139" relative="1" as="geometry">
            <mxPoint x="-1" y="-10" as="offset" />
          </mxGeometry>
        </mxCell>
        <mxCell id="BZC8KsCl4TNFc6Lqy8Sw-91" value="1 Projekt&lt;div&gt;hat&lt;/div&gt;&lt;div&gt;n Listen&lt;/div&gt;" style="edgeLabel;html=1;align=center;verticalAlign=middle;resizable=0;points=[];" vertex="1" connectable="0" parent="BZC8KsCl4TNFc6Lqy8Sw-75">
          <mxGeometry x="-0.2" relative="1" as="geometry">
            <mxPoint x="18" as="offset" />
          </mxGeometry>
        </mxCell>
        <mxCell id="BZC8KsCl4TNFc6Lqy8Sw-77" value="" style="endArrow=none;html=1;rounded=0;exitX=0;exitY=0;exitDx=0;exitDy=0;entryX=1;entryY=0;entryDx=0;entryDy=0;" edge="1" parent="1" source="BZC8KsCl4TNFc6Lqy8Sw-21" target="BZC8KsCl4TNFc6Lqy8Sw-11">
          <mxGeometry width="50" height="50" relative="1" as="geometry">
            <mxPoint x="1270" y="260" as="sourcePoint" />
            <mxPoint x="1600" y="230" as="targetPoint" />
          </mxGeometry>
        </mxCell>
        <mxCell id="BZC8KsCl4TNFc6Lqy8Sw-92" value="1" style="edgeLabel;html=1;align=center;verticalAlign=middle;resizable=0;points=[];" vertex="1" connectable="0" parent="BZC8KsCl4TNFc6Lqy8Sw-77">
          <mxGeometry x="0.7929" relative="1" as="geometry">
            <mxPoint x="-1" y="-10" as="offset" />
          </mxGeometry>
        </mxCell>
        <mxCell id="BZC8KsCl4TNFc6Lqy8Sw-93" value="n" style="edgeLabel;html=1;align=center;verticalAlign=middle;resizable=0;points=[];" vertex="1" connectable="0" parent="BZC8KsCl4TNFc6Lqy8Sw-77">
          <mxGeometry x="-0.7071" relative="1" as="geometry">
            <mxPoint x="-1" y="-10" as="offset" />
          </mxGeometry>
        </mxCell>
        <mxCell id="BZC8KsCl4TNFc6Lqy8Sw-94" value="1 Liste&lt;div&gt;hat&lt;/div&gt;&lt;div&gt;n Felder&lt;/div&gt;" style="edgeLabel;html=1;align=center;verticalAlign=middle;resizable=0;points=[];" vertex="1" connectable="0" parent="BZC8KsCl4TNFc6Lqy8Sw-77">
          <mxGeometry x="0.1679" y="-2" relative="1" as="geometry">
            <mxPoint x="1" y="2" as="offset" />
          </mxGeometry>
        </mxCell>
        <mxCell id="BZC8KsCl4TNFc6Lqy8Sw-78" value="" style="endArrow=none;html=1;rounded=0;exitX=1;exitY=0;exitDx=0;exitDy=0;entryX=0;entryY=0;entryDx=0;entryDy=0;" edge="1" parent="1" source="BZC8KsCl4TNFc6Lqy8Sw-49" target="wx6ul4WBU41h2ZuDPQCp-3">
          <mxGeometry width="50" height="50" relative="1" as="geometry">
            <mxPoint x="200" y="310" as="sourcePoint" />
            <mxPoint x="530" y="280" as="targetPoint" />
          </mxGeometry>
        </mxCell>
        <mxCell id="BZC8KsCl4TNFc6Lqy8Sw-80" value="1" style="edgeLabel;html=1;align=center;verticalAlign=middle;resizable=0;points=[];" vertex="1" connectable="0" parent="BZC8KsCl4TNFc6Lqy8Sw-78">
          <mxGeometry x="0.7741" y="3" relative="1" as="geometry">
            <mxPoint x="-1" y="-13" as="offset" />
          </mxGeometry>
        </mxCell>
        <mxCell id="BZC8KsCl4TNFc6Lqy8Sw-81" value="n" style="edgeLabel;html=1;align=center;verticalAlign=middle;resizable=0;points=[];" vertex="1" connectable="0" parent="BZC8KsCl4TNFc6Lqy8Sw-78">
          <mxGeometry x="-0.8491" y="6" relative="1" as="geometry">
            <mxPoint x="1" y="-7" as="offset" />
          </mxGeometry>
        </mxCell>
        <mxCell id="BZC8KsCl4TNFc6Lqy8Sw-82" value="1 Nutzer&lt;div&gt;hat&lt;/div&gt;&lt;div&gt;n Kollegen&lt;/div&gt;" style="edgeLabel;html=1;align=center;verticalAlign=middle;resizable=0;points=[];" vertex="1" connectable="0" parent="BZC8KsCl4TNFc6Lqy8Sw-78">
          <mxGeometry x="-0.2229" relative="1" as="geometry">
            <mxPoint x="6" as="offset" />
          </mxGeometry>
        </mxCell>
        <mxCell id="BZC8KsCl4TNFc6Lqy8Sw-79" value="" style="endArrow=none;html=1;rounded=0;exitX=1;exitY=0;exitDx=0;exitDy=0;entryX=0;entryY=0;entryDx=0;entryDy=0;" edge="1" parent="1" source="BZC8KsCl4TNFc6Lqy8Sw-56" target="wx6ul4WBU41h2ZuDPQCp-3">
          <mxGeometry width="50" height="50" relative="1" as="geometry">
            <mxPoint x="250" y="540" as="sourcePoint" />
            <mxPoint x="580" y="510" as="targetPoint" />
          </mxGeometry>
        </mxCell>
        <mxCell id="BZC8KsCl4TNFc6Lqy8Sw-86" value="1" style="edgeLabel;html=1;align=center;verticalAlign=middle;resizable=0;points=[];" vertex="1" connectable="0" parent="BZC8KsCl4TNFc6Lqy8Sw-79">
          <mxGeometry x="0.7503" y="2" relative="1" as="geometry">
            <mxPoint x="-15" y="-4" as="offset" />
          </mxGeometry>
        </mxCell>
        <mxCell id="BZC8KsCl4TNFc6Lqy8Sw-87" value="n" style="edgeLabel;html=1;align=center;verticalAlign=middle;resizable=0;points=[];" vertex="1" connectable="0" parent="BZC8KsCl4TNFc6Lqy8Sw-79">
          <mxGeometry x="-0.7881" relative="1" as="geometry">
            <mxPoint x="-11" as="offset" />
          </mxGeometry>
        </mxCell>
        <mxCell id="BZC8KsCl4TNFc6Lqy8Sw-88" value="1 Nutzer&lt;div&gt;hat&lt;/div&gt;&lt;div&gt;n Aktivitäten&lt;/div&gt;" style="edgeLabel;html=1;align=center;verticalAlign=middle;resizable=0;points=[];" vertex="1" connectable="0" parent="BZC8KsCl4TNFc6Lqy8Sw-79">
          <mxGeometry x="0.0065" y="-2" relative="1" as="geometry">
            <mxPoint x="-17" y="20" as="offset" />
          </mxGeometry>
        </mxCell>
        <mxCell id="BZC8KsCl4TNFc6Lqy8Sw-95" value="&lt;b&gt;Teilnehmer Projekt&lt;/b&gt;" style="swimlane;fontStyle=0;childLayout=stackLayout;horizontal=1;startSize=30;horizontalStack=0;resizeParent=1;resizeParentMax=0;resizeLast=0;collapsible=1;marginBottom=0;whiteSpace=wrap;html=1;" vertex="1" parent="1">
          <mxGeometry x="770" y="750" width="140" height="120" as="geometry" />
        </mxCell>
        <mxCell id="BZC8KsCl4TNFc6Lqy8Sw-96" value="&lt;u&gt;Teilnehmer ID Projekt&lt;/u&gt;" style="rounded=0;whiteSpace=wrap;html=1;" vertex="1" parent="BZC8KsCl4TNFc6Lqy8Sw-95">
          <mxGeometry y="30" width="140" height="30" as="geometry" />
        </mxCell>
        <mxCell id="BZC8KsCl4TNFc6Lqy8Sw-97" value="&lt;i&gt;Projekt ID&lt;/i&gt;" style="rounded=0;whiteSpace=wrap;html=1;" vertex="1" parent="BZC8KsCl4TNFc6Lqy8Sw-95">
          <mxGeometry y="60" width="140" height="30" as="geometry" />
        </mxCell>
        <mxCell id="BZC8KsCl4TNFc6Lqy8Sw-98" value="&lt;i&gt;Nutzer ID&lt;/i&gt;" style="rounded=0;whiteSpace=wrap;html=1;" vertex="1" parent="BZC8KsCl4TNFc6Lqy8Sw-95">
          <mxGeometry y="90" width="140" height="30" as="geometry" />
        </mxCell>
        <mxCell id="BZC8KsCl4TNFc6Lqy8Sw-99" value="" style="endArrow=none;html=1;rounded=0;exitX=1;exitY=0;exitDx=0;exitDy=0;entryX=1;entryY=0;entryDx=0;entryDy=0;" edge="1" parent="1" source="BZC8KsCl4TNFc6Lqy8Sw-1" target="BZC8KsCl4TNFc6Lqy8Sw-95">
          <mxGeometry width="50" height="50" relative="1" as="geometry">
            <mxPoint x="760" y="500" as="sourcePoint" />
            <mxPoint x="960" y="560" as="targetPoint" />
          </mxGeometry>
        </mxCell>
        <mxCell id="BZC8KsCl4TNFc6Lqy8Sw-100" value="1" style="edgeLabel;html=1;align=center;verticalAlign=middle;resizable=0;points=[];" vertex="1" connectable="0" parent="BZC8KsCl4TNFc6Lqy8Sw-99">
          <mxGeometry x="-0.7585" y="4" relative="1" as="geometry">
            <mxPoint x="6" y="-8" as="offset" />
          </mxGeometry>
        </mxCell>
        <mxCell id="BZC8KsCl4TNFc6Lqy8Sw-101" value="n" style="edgeLabel;html=1;align=center;verticalAlign=middle;resizable=0;points=[];" vertex="1" connectable="0" parent="BZC8KsCl4TNFc6Lqy8Sw-99">
          <mxGeometry x="0.8941" y="1" relative="1" as="geometry">
            <mxPoint x="13" y="-3" as="offset" />
          </mxGeometry>
        </mxCell>
        <mxCell id="BZC8KsCl4TNFc6Lqy8Sw-102" value="1 Projekt&lt;div&gt;hat&lt;/div&gt;&lt;div&gt;n Teilnehmer&lt;/div&gt;" style="edgeLabel;html=1;align=center;verticalAlign=middle;resizable=0;points=[];" vertex="1" connectable="0" parent="BZC8KsCl4TNFc6Lqy8Sw-99">
          <mxGeometry x="-0.014" y="5" relative="1" as="geometry">
            <mxPoint x="10" y="9" as="offset" />
          </mxGeometry>
        </mxCell>
        <mxCell id="BZC8KsCl4TNFc6Lqy8Sw-103" value="&lt;b&gt;Teilnehmer Feld&lt;/b&gt;" style="swimlane;fontStyle=0;childLayout=stackLayout;horizontal=1;startSize=30;horizontalStack=0;resizeParent=1;resizeParentMax=0;resizeLast=0;collapsible=1;marginBottom=0;whiteSpace=wrap;html=1;" vertex="1" parent="1">
          <mxGeometry x="770" y="950" width="140" height="120" as="geometry" />
        </mxCell>
        <mxCell id="BZC8KsCl4TNFc6Lqy8Sw-104" value="&lt;u&gt;Teilnehmer ID Feld&lt;/u&gt;" style="rounded=0;whiteSpace=wrap;html=1;" vertex="1" parent="BZC8KsCl4TNFc6Lqy8Sw-103">
          <mxGeometry y="30" width="140" height="30" as="geometry" />
        </mxCell>
        <mxCell id="BZC8KsCl4TNFc6Lqy8Sw-105" value="&lt;i&gt;Feld ID&lt;/i&gt;" style="rounded=0;whiteSpace=wrap;html=1;" vertex="1" parent="BZC8KsCl4TNFc6Lqy8Sw-103">
          <mxGeometry y="60" width="140" height="30" as="geometry" />
        </mxCell>
        <mxCell id="BZC8KsCl4TNFc6Lqy8Sw-106" value="&lt;i&gt;Nutzer ID&lt;/i&gt;" style="rounded=0;whiteSpace=wrap;html=1;" vertex="1" parent="BZC8KsCl4TNFc6Lqy8Sw-103">
          <mxGeometry y="90" width="140" height="30" as="geometry" />
        </mxCell>
        <mxCell id="BZC8KsCl4TNFc6Lqy8Sw-107" value="" style="endArrow=none;html=1;rounded=0;exitX=0;exitY=0;exitDx=0;exitDy=0;entryX=1;entryY=0;entryDx=0;entryDy=0;" edge="1" parent="1" source="BZC8KsCl4TNFc6Lqy8Sw-21" target="BZC8KsCl4TNFc6Lqy8Sw-103">
          <mxGeometry width="50" height="50" relative="1" as="geometry">
            <mxPoint x="1120" y="660" as="sourcePoint" />
            <mxPoint x="1200" y="980" as="targetPoint" />
          </mxGeometry>
        </mxCell>
        <mxCell id="BZC8KsCl4TNFc6Lqy8Sw-108" value="1" style="edgeLabel;html=1;align=center;verticalAlign=middle;resizable=0;points=[];" vertex="1" connectable="0" parent="BZC8KsCl4TNFc6Lqy8Sw-107">
          <mxGeometry x="-0.7585" y="4" relative="1" as="geometry">
            <mxPoint x="-11" y="-20" as="offset" />
          </mxGeometry>
        </mxCell>
        <mxCell id="BZC8KsCl4TNFc6Lqy8Sw-109" value="n" style="edgeLabel;html=1;align=center;verticalAlign=middle;resizable=0;points=[];" vertex="1" connectable="0" parent="BZC8KsCl4TNFc6Lqy8Sw-107">
          <mxGeometry x="0.8941" y="1" relative="1" as="geometry">
            <mxPoint x="-11" y="-3" as="offset" />
          </mxGeometry>
        </mxCell>
        <mxCell id="BZC8KsCl4TNFc6Lqy8Sw-110" value="1 Feld&lt;div&gt;hat&lt;/div&gt;&lt;div&gt;n Teilnehmer&lt;/div&gt;" style="edgeLabel;html=1;align=center;verticalAlign=middle;resizable=0;points=[];" vertex="1" connectable="0" parent="BZC8KsCl4TNFc6Lqy8Sw-107">
          <mxGeometry x="-0.014" y="5" relative="1" as="geometry">
            <mxPoint x="-12" y="-5" as="offset" />
          </mxGeometry>
        </mxCell>
        <mxCell id="BZC8KsCl4TNFc6Lqy8Sw-111" value="" style="endArrow=none;html=1;rounded=0;entryX=1;entryY=0;entryDx=0;entryDy=0;exitX=0;exitY=0;exitDx=0;exitDy=0;" edge="1" parent="1" source="BZC8KsCl4TNFc6Lqy8Sw-95" target="wx6ul4WBU41h2ZuDPQCp-3">
          <mxGeometry width="50" height="50" relative="1" as="geometry">
            <mxPoint x="700" y="820" as="sourcePoint" />
            <mxPoint x="810" y="580" as="targetPoint" />
          </mxGeometry>
        </mxCell>
        <mxCell id="BZC8KsCl4TNFc6Lqy8Sw-113" value="1" style="edgeLabel;html=1;align=center;verticalAlign=middle;resizable=0;points=[];" vertex="1" connectable="0" parent="BZC8KsCl4TNFc6Lqy8Sw-111">
          <mxGeometry x="0.7935" y="-4" relative="1" as="geometry">
            <mxPoint y="-14" as="offset" />
          </mxGeometry>
        </mxCell>
        <mxCell id="BZC8KsCl4TNFc6Lqy8Sw-115" value="n" style="edgeLabel;html=1;align=center;verticalAlign=middle;resizable=0;points=[];" vertex="1" connectable="0" parent="BZC8KsCl4TNFc6Lqy8Sw-111">
          <mxGeometry x="-0.8954" relative="1" as="geometry">
            <mxPoint x="12" as="offset" />
          </mxGeometry>
        </mxCell>
        <mxCell id="BZC8KsCl4TNFc6Lqy8Sw-117" value="1 Nutzer&lt;div&gt;ist Teilnehmer in&lt;/div&gt;&lt;div&gt;n Projekten&lt;/div&gt;" style="edgeLabel;html=1;align=center;verticalAlign=middle;resizable=0;points=[];" vertex="1" connectable="0" parent="BZC8KsCl4TNFc6Lqy8Sw-111">
          <mxGeometry x="0.1627" y="-2" relative="1" as="geometry">
            <mxPoint x="32" y="45" as="offset" />
          </mxGeometry>
        </mxCell>
        <mxCell id="BZC8KsCl4TNFc6Lqy8Sw-112" value="" style="endArrow=none;html=1;rounded=0;entryX=1;entryY=0;entryDx=0;entryDy=0;exitX=0;exitY=0;exitDx=0;exitDy=0;" edge="1" parent="1" source="BZC8KsCl4TNFc6Lqy8Sw-103" target="wx6ul4WBU41h2ZuDPQCp-3">
          <mxGeometry width="50" height="50" relative="1" as="geometry">
            <mxPoint x="880" y="1130" as="sourcePoint" />
            <mxPoint x="650" y="780" as="targetPoint" />
          </mxGeometry>
        </mxCell>
        <mxCell id="BZC8KsCl4TNFc6Lqy8Sw-114" value="1" style="edgeLabel;html=1;align=center;verticalAlign=middle;resizable=0;points=[];" vertex="1" connectable="0" parent="BZC8KsCl4TNFc6Lqy8Sw-112">
          <mxGeometry x="0.747" y="5" relative="1" as="geometry">
            <mxPoint as="offset" />
          </mxGeometry>
        </mxCell>
        <mxCell id="BZC8KsCl4TNFc6Lqy8Sw-116" value="n" style="edgeLabel;html=1;align=center;verticalAlign=middle;resizable=0;points=[];" vertex="1" connectable="0" parent="BZC8KsCl4TNFc6Lqy8Sw-112">
          <mxGeometry x="-0.9434" y="-1" relative="1" as="geometry">
            <mxPoint x="-15" y="-1" as="offset" />
          </mxGeometry>
        </mxCell>
        <mxCell id="BZC8KsCl4TNFc6Lqy8Sw-118" value="&lt;span style=&quot;color: rgba(0, 0, 0, 0); font-family: monospace; font-size: 0px; text-align: start; background-color: rgb(236, 236, 236);&quot;&gt;%3CmxGraphModel%3E%3Croot%3E%3CmxCell%20id%3D%220%22%2F%3E%3CmxCell%20id%3D%221%22%20parent%3D%220%22%2F%3E%3CmxCell%20id%3D%222%22%20value%3D%221%20Nutzer%26lt%3Bdiv%26gt%3Bist%20Teilnehmer%20in%26lt%3B%2Fdiv%26gt%3B%26lt%3Bdiv%26gt%3Bn%20Projekten%26lt%3B%2Fdiv%26gt%3B%22%20style%3D%22edgeLabel%3Bhtml%3D1%3Balign%3Dcenter%3BverticalAlign%3Dmiddle%3Bresizable%3D0%3Bpoints%3D%5B%5D%3B%22%20vertex%3D%221%22%20connectable%3D%220%22%20parent%3D%221%22%3E%3CmxGeometry%20x%3D%22669.8093010858233%22%20y%3D%22510.19843354949285%22%20as%3D%22geometry%22%2F%3E%3C%2FmxCell%3E%3C%2Froot%3E%3C%2FmxGraphModel%3E&lt;/span&gt;" style="edgeLabel;html=1;align=center;verticalAlign=middle;resizable=0;points=[];" vertex="1" connectable="0" parent="BZC8KsCl4TNFc6Lqy8Sw-112">
          <mxGeometry x="0.1112" y="-1" relative="1" as="geometry">
            <mxPoint as="offset" />
          </mxGeometry>
        </mxCell>
        <mxCell id="BZC8KsCl4TNFc6Lqy8Sw-119" value="1 Nutzer&lt;div&gt;ist Teilnehmer in&lt;/div&gt;&lt;div&gt;n Feldern&lt;/div&gt;" style="edgeLabel;html=1;align=center;verticalAlign=middle;resizable=0;points=[];" vertex="1" connectable="0" parent="BZC8KsCl4TNFc6Lqy8Sw-112">
          <mxGeometry x="0.1083" y="3" relative="1" as="geometry">
            <mxPoint x="10" y="43" as="offset" />
          </mxGeometry>
        </mxCell>
        <mxCell id="BZC8KsCl4TNFc6Lqy8Sw-120" value="&lt;b&gt;Beobachtung Projekte&lt;/b&gt;" style="swimlane;fontStyle=0;childLayout=stackLayout;horizontal=1;startSize=30;horizontalStack=0;resizeParent=1;resizeParentMax=0;resizeLast=0;collapsible=1;marginBottom=0;whiteSpace=wrap;html=1;" vertex="1" parent="1">
          <mxGeometry x="500" y="60" width="140" height="170" as="geometry" />
        </mxCell>
        <mxCell id="BZC8KsCl4TNFc6Lqy8Sw-121" value="&lt;u&gt;Beobachtungs ID Projekt&lt;/u&gt;&lt;div&gt;&lt;u&gt;[Nutzer ID + Projekt ID]&lt;/u&gt;&lt;/div&gt;" style="rounded=0;whiteSpace=wrap;html=1;" vertex="1" parent="BZC8KsCl4TNFc6Lqy8Sw-120">
          <mxGeometry y="30" width="140" height="40" as="geometry" />
        </mxCell>
        <mxCell id="BZC8KsCl4TNFc6Lqy8Sw-122" value="&lt;i&gt;Projekt ID&lt;/i&gt;" style="rounded=0;whiteSpace=wrap;html=1;" vertex="1" parent="BZC8KsCl4TNFc6Lqy8Sw-120">
          <mxGeometry y="70" width="140" height="30" as="geometry" />
        </mxCell>
        <mxCell id="BZC8KsCl4TNFc6Lqy8Sw-123" value="&lt;i&gt;Nutzer ID&lt;/i&gt;" style="rounded=0;whiteSpace=wrap;html=1;" vertex="1" parent="BZC8KsCl4TNFc6Lqy8Sw-120">
          <mxGeometry y="100" width="140" height="30" as="geometry" />
        </mxCell>
        <mxCell id="BZC8KsCl4TNFc6Lqy8Sw-71" value="Status:&lt;div&gt;Beobachtet&lt;/div&gt;" style="rounded=0;whiteSpace=wrap;html=1;" vertex="1" parent="BZC8KsCl4TNFc6Lqy8Sw-120">
          <mxGeometry y="130" width="140" height="40" as="geometry" />
        </mxCell>
        <mxCell id="BZC8KsCl4TNFc6Lqy8Sw-125" value="&lt;b&gt;Beobachtung Felder&lt;/b&gt;" style="swimlane;fontStyle=0;childLayout=stackLayout;horizontal=1;startSize=30;horizontalStack=0;resizeParent=1;resizeParentMax=0;resizeLast=0;collapsible=1;marginBottom=0;whiteSpace=wrap;html=1;" vertex="1" parent="1">
          <mxGeometry x="790" y="100" width="140" height="170" as="geometry" />
        </mxCell>
        <mxCell id="BZC8KsCl4TNFc6Lqy8Sw-126" value="&lt;u&gt;Beobachtungs ID Feld&lt;/u&gt;&lt;div&gt;&lt;u&gt;[Nutzer ID + Feld ID]&lt;/u&gt;&lt;/div&gt;" style="rounded=0;whiteSpace=wrap;html=1;" vertex="1" parent="BZC8KsCl4TNFc6Lqy8Sw-125">
          <mxGeometry y="30" width="140" height="40" as="geometry" />
        </mxCell>
        <mxCell id="BZC8KsCl4TNFc6Lqy8Sw-127" value="&lt;i&gt;Feld ID&lt;/i&gt;" style="rounded=0;whiteSpace=wrap;html=1;" vertex="1" parent="BZC8KsCl4TNFc6Lqy8Sw-125">
          <mxGeometry y="70" width="140" height="30" as="geometry" />
        </mxCell>
        <mxCell id="BZC8KsCl4TNFc6Lqy8Sw-128" value="&lt;i&gt;Nutzer ID&lt;/i&gt;" style="rounded=0;whiteSpace=wrap;html=1;" vertex="1" parent="BZC8KsCl4TNFc6Lqy8Sw-125">
          <mxGeometry y="100" width="140" height="30" as="geometry" />
        </mxCell>
        <mxCell id="BZC8KsCl4TNFc6Lqy8Sw-129" value="Status:&lt;div&gt;Beobachtet&lt;/div&gt;" style="rounded=0;whiteSpace=wrap;html=1;" vertex="1" parent="BZC8KsCl4TNFc6Lqy8Sw-125">
          <mxGeometry y="130" width="140" height="40" as="geometry" />
        </mxCell>
        <mxCell id="BZC8KsCl4TNFc6Lqy8Sw-130" value="" style="endArrow=none;html=1;rounded=0;exitX=1;exitY=0;exitDx=0;exitDy=0;entryX=0;entryY=0;entryDx=0;entryDy=0;" edge="1" parent="1" source="wx6ul4WBU41h2ZuDPQCp-3" target="BZC8KsCl4TNFc6Lqy8Sw-125">
          <mxGeometry width="50" height="50" relative="1" as="geometry">
            <mxPoint x="760" y="500" as="sourcePoint" />
            <mxPoint x="690" y="210" as="targetPoint" />
          </mxGeometry>
        </mxCell>
        <mxCell id="BZC8KsCl4TNFc6Lqy8Sw-131" value="1" style="edgeLabel;html=1;align=center;verticalAlign=middle;resizable=0;points=[];" vertex="1" connectable="0" parent="BZC8KsCl4TNFc6Lqy8Sw-130">
          <mxGeometry x="-0.8477" y="1" relative="1" as="geometry">
            <mxPoint x="-18" as="offset" />
          </mxGeometry>
        </mxCell>
        <mxCell id="BZC8KsCl4TNFc6Lqy8Sw-132" value="n" style="edgeLabel;html=1;align=center;verticalAlign=middle;resizable=0;points=[];" vertex="1" connectable="0" parent="BZC8KsCl4TNFc6Lqy8Sw-130">
          <mxGeometry x="0.8761" y="3" relative="1" as="geometry">
            <mxPoint x="-12" as="offset" />
          </mxGeometry>
        </mxCell>
        <mxCell id="BZC8KsCl4TNFc6Lqy8Sw-133" value="1 Nutzer&lt;div&gt;beobachtet&lt;/div&gt;&lt;div&gt;n Felder&lt;/div&gt;" style="edgeLabel;html=1;align=center;verticalAlign=middle;resizable=0;points=[];" vertex="1" connectable="0" parent="BZC8KsCl4TNFc6Lqy8Sw-130">
          <mxGeometry x="0.1646" y="-2" relative="1" as="geometry">
            <mxPoint x="-37" y="43" as="offset" />
          </mxGeometry>
        </mxCell>
        <mxCell id="BZC8KsCl4TNFc6Lqy8Sw-135" value="" style="endArrow=none;html=1;rounded=0;exitX=1;exitY=0;exitDx=0;exitDy=0;entryX=1;entryY=0;entryDx=0;entryDy=0;" edge="1" parent="1" source="BZC8KsCl4TNFc6Lqy8Sw-125" target="BZC8KsCl4TNFc6Lqy8Sw-21">
          <mxGeometry width="50" height="50" relative="1" as="geometry">
            <mxPoint x="1080" y="220" as="sourcePoint" />
            <mxPoint x="1130" y="170" as="targetPoint" />
          </mxGeometry>
        </mxCell>
        <mxCell id="BZC8KsCl4TNFc6Lqy8Sw-136" value="1" style="edgeLabel;html=1;align=center;verticalAlign=middle;resizable=0;points=[];" vertex="1" connectable="0" parent="BZC8KsCl4TNFc6Lqy8Sw-135">
          <mxGeometry x="-0.9292" y="-1" relative="1" as="geometry">
            <mxPoint x="12" y="-6" as="offset" />
          </mxGeometry>
        </mxCell>
        <mxCell id="BZC8KsCl4TNFc6Lqy8Sw-137" value="1" style="edgeLabel;html=1;align=center;verticalAlign=middle;resizable=0;points=[];" vertex="1" connectable="0" parent="BZC8KsCl4TNFc6Lqy8Sw-135">
          <mxGeometry x="0.9303" y="3" relative="1" as="geometry">
            <mxPoint x="7" as="offset" />
          </mxGeometry>
        </mxCell>
        <mxCell id="BZC8KsCl4TNFc6Lqy8Sw-138" value="1 Beobachtung&lt;div&gt;möglich je&lt;/div&gt;&lt;div&gt;1 Feld&lt;/div&gt;" style="edgeLabel;html=1;align=center;verticalAlign=middle;resizable=0;points=[];" vertex="1" connectable="0" parent="BZC8KsCl4TNFc6Lqy8Sw-135">
          <mxGeometry x="-0.2204" y="3" relative="1" as="geometry">
            <mxPoint as="offset" />
          </mxGeometry>
        </mxCell>
        <mxCell id="BZC8KsCl4TNFc6Lqy8Sw-140" value="" style="endArrow=none;html=1;rounded=0;exitX=0;exitY=0;exitDx=0;exitDy=0;entryX=0;entryY=0;entryDx=0;entryDy=0;" edge="1" parent="1" source="wx6ul4WBU41h2ZuDPQCp-3" target="BZC8KsCl4TNFc6Lqy8Sw-120">
          <mxGeometry width="50" height="50" relative="1" as="geometry">
            <mxPoint x="360" y="280" as="sourcePoint" />
            <mxPoint x="410" y="230" as="targetPoint" />
          </mxGeometry>
        </mxCell>
        <mxCell id="BZC8KsCl4TNFc6Lqy8Sw-141" value="1" style="edgeLabel;html=1;align=center;verticalAlign=middle;resizable=0;points=[];" vertex="1" connectable="0" parent="BZC8KsCl4TNFc6Lqy8Sw-140">
          <mxGeometry x="-0.8867" y="-3" relative="1" as="geometry">
            <mxPoint x="-9" y="-12" as="offset" />
          </mxGeometry>
        </mxCell>
        <mxCell id="BZC8KsCl4TNFc6Lqy8Sw-142" value="n" style="edgeLabel;html=1;align=center;verticalAlign=middle;resizable=0;points=[];" vertex="1" connectable="0" parent="BZC8KsCl4TNFc6Lqy8Sw-140">
          <mxGeometry x="0.8107" y="2" relative="1" as="geometry">
            <mxPoint x="-9" as="offset" />
          </mxGeometry>
        </mxCell>
        <mxCell id="BZC8KsCl4TNFc6Lqy8Sw-143" value="1 Nutzer&lt;div&gt;beobachtet&lt;/div&gt;&lt;div&gt;n Projekte&lt;/div&gt;" style="edgeLabel;html=1;align=center;verticalAlign=middle;resizable=0;points=[];" vertex="1" connectable="0" parent="BZC8KsCl4TNFc6Lqy8Sw-140">
          <mxGeometry x="0.0309" y="-2" relative="1" as="geometry">
            <mxPoint as="offset" />
          </mxGeometry>
        </mxCell>
        <mxCell id="BZC8KsCl4TNFc6Lqy8Sw-144" value="" style="endArrow=none;html=1;rounded=0;entryX=1;entryY=0;entryDx=0;entryDy=0;exitX=1;exitY=0;exitDx=0;exitDy=0;" edge="1" parent="1" source="BZC8KsCl4TNFc6Lqy8Sw-1" target="BZC8KsCl4TNFc6Lqy8Sw-120">
          <mxGeometry width="50" height="50" relative="1" as="geometry">
            <mxPoint x="120" y="300" as="sourcePoint" />
            <mxPoint x="170" y="250" as="targetPoint" />
          </mxGeometry>
        </mxCell>
        <mxCell id="BZC8KsCl4TNFc6Lqy8Sw-145" value="1" style="edgeLabel;html=1;align=center;verticalAlign=middle;resizable=0;points=[];" vertex="1" connectable="0" parent="BZC8KsCl4TNFc6Lqy8Sw-144">
          <mxGeometry x="0.9046" y="-2" relative="1" as="geometry">
            <mxPoint x="8" y="1" as="offset" />
          </mxGeometry>
        </mxCell>
        <mxCell id="BZC8KsCl4TNFc6Lqy8Sw-146" value="1" style="edgeLabel;html=1;align=center;verticalAlign=middle;resizable=0;points=[];" vertex="1" connectable="0" parent="BZC8KsCl4TNFc6Lqy8Sw-144">
          <mxGeometry x="-0.8933" y="-3" relative="1" as="geometry">
            <mxPoint x="9" as="offset" />
          </mxGeometry>
        </mxCell>
        <mxCell id="BZC8KsCl4TNFc6Lqy8Sw-147" value="1 Beobachtung&lt;div&gt;möglich je&lt;/div&gt;&lt;div&gt;1 Projekt&lt;/div&gt;" style="edgeLabel;html=1;align=center;verticalAlign=middle;resizable=0;points=[];" vertex="1" connectable="0" parent="BZC8KsCl4TNFc6Lqy8Sw-144">
          <mxGeometry x="-0.1402" y="3" relative="1" as="geometry">
            <mxPoint x="27" y="34" as="offset" />
          </mxGeometry>
        </mxCell>
        <mxCell id="BZC8KsCl4TNFc6Lqy8Sw-148" value="&lt;b&gt;Status&lt;/b&gt;" style="swimlane;fontStyle=0;childLayout=stackLayout;horizontal=1;startSize=30;horizontalStack=0;resizeParent=1;resizeParentMax=0;resizeLast=0;collapsible=1;marginBottom=0;whiteSpace=wrap;html=1;" vertex="1" parent="1">
          <mxGeometry x="1020" y="1170" width="140" height="110" as="geometry" />
        </mxCell>
        <mxCell id="BZC8KsCl4TNFc6Lqy8Sw-149" value="&lt;u&gt;Status ID&lt;/u&gt;" style="rounded=0;whiteSpace=wrap;html=1;" vertex="1" parent="BZC8KsCl4TNFc6Lqy8Sw-148">
          <mxGeometry y="30" width="140" height="30" as="geometry" />
        </mxCell>
        <mxCell id="BZC8KsCl4TNFc6Lqy8Sw-152" value="Status&lt;div&gt;[Fortschritt/Aktiv&lt;/div&gt;&lt;div&gt;Favorit/Kollege]&lt;/div&gt;" style="rounded=0;whiteSpace=wrap;html=1;" vertex="1" parent="BZC8KsCl4TNFc6Lqy8Sw-148">
          <mxGeometry y="60" width="140" height="50" as="geometry" />
        </mxCell>
        <mxCell id="BZC8KsCl4TNFc6Lqy8Sw-158" value="" style="endArrow=none;dashed=1;html=1;dashPattern=1 3;strokeWidth=2;rounded=0;" edge="1" parent="1" source="BZC8KsCl4TNFc6Lqy8Sw-43" target="BZC8KsCl4TNFc6Lqy8Sw-148">
          <mxGeometry width="50" height="50" relative="1" as="geometry">
            <mxPoint x="1140" y="990" as="sourcePoint" />
            <mxPoint x="1190" y="940" as="targetPoint" />
          </mxGeometry>
        </mxCell>
        <mxCell id="BZC8KsCl4TNFc6Lqy8Sw-159" value="" style="endArrow=none;dashed=1;html=1;dashPattern=1 3;strokeWidth=2;rounded=0;" edge="1" parent="1" source="BZC8KsCl4TNFc6Lqy8Sw-153" target="BZC8KsCl4TNFc6Lqy8Sw-148">
          <mxGeometry width="50" height="50" relative="1" as="geometry">
            <mxPoint x="1120" y="930" as="sourcePoint" />
            <mxPoint x="1170" y="880" as="targetPoint" />
            <Array as="points">
              <mxPoint x="1010" y="730" />
            </Array>
          </mxGeometry>
        </mxCell>
        <mxCell id="BZC8KsCl4TNFc6Lqy8Sw-160" value="" style="endArrow=none;dashed=1;html=1;dashPattern=1 3;strokeWidth=2;rounded=0;" edge="1" parent="1" source="BZC8KsCl4TNFc6Lqy8Sw-148" target="BZC8KsCl4TNFc6Lqy8Sw-154">
          <mxGeometry width="50" height="50" relative="1" as="geometry">
            <mxPoint x="570" y="1210" as="sourcePoint" />
            <mxPoint x="620" y="1160" as="targetPoint" />
            <Array as="points">
              <mxPoint x="250" y="980" />
            </Array>
          </mxGeometry>
        </mxCell>
        <mxCell id="BZC8KsCl4TNFc6Lqy8Sw-161" value="" style="endArrow=none;dashed=1;html=1;dashPattern=1 3;strokeWidth=2;rounded=0;" edge="1" parent="1" source="BZC8KsCl4TNFc6Lqy8Sw-148" target="BZC8KsCl4TNFc6Lqy8Sw-156">
          <mxGeometry width="50" height="50" relative="1" as="geometry">
            <mxPoint x="210" y="1130" as="sourcePoint" />
            <mxPoint x="260" y="1080" as="targetPoint" />
            <Array as="points">
              <mxPoint x="150" y="1080" />
            </Array>
          </mxGeometry>
        </mxCell>
        <mxCell id="BZC8KsCl4TNFc6Lqy8Sw-162" value="" style="endArrow=none;dashed=1;html=1;dashPattern=1 3;strokeWidth=2;rounded=0;" edge="1" parent="1" source="BZC8KsCl4TNFc6Lqy8Sw-148" target="BZC8KsCl4TNFc6Lqy8Sw-155">
          <mxGeometry width="50" height="50" relative="1" as="geometry">
            <mxPoint x="330" y="1110" as="sourcePoint" />
            <mxPoint x="380" y="1060" as="targetPoint" />
            <Array as="points">
              <mxPoint x="110" y="1150" />
            </Array>
          </mxGeometry>
        </mxCell>
        <mxCell id="BZC8KsCl4TNFc6Lqy8Sw-163" value="&lt;b&gt;Sichtbarkeit&lt;/b&gt;" style="swimlane;fontStyle=0;childLayout=stackLayout;horizontal=1;startSize=30;horizontalStack=0;resizeParent=1;resizeParentMax=0;resizeLast=0;collapsible=1;marginBottom=0;whiteSpace=wrap;html=1;" vertex="1" parent="1">
          <mxGeometry x="570" y="900" width="140" height="90" as="geometry" />
        </mxCell>
        <mxCell id="BZC8KsCl4TNFc6Lqy8Sw-164" value="&lt;u&gt;Sichtbarkeit ID&lt;/u&gt;" style="rounded=0;whiteSpace=wrap;html=1;" vertex="1" parent="BZC8KsCl4TNFc6Lqy8Sw-163">
          <mxGeometry y="30" width="140" height="30" as="geometry" />
        </mxCell>
        <mxCell id="BZC8KsCl4TNFc6Lqy8Sw-165" value="Sichtbarkeit" style="rounded=0;whiteSpace=wrap;html=1;" vertex="1" parent="BZC8KsCl4TNFc6Lqy8Sw-163">
          <mxGeometry y="60" width="140" height="30" as="geometry" />
        </mxCell>
        <mxCell id="BZC8KsCl4TNFc6Lqy8Sw-167" value="" style="endArrow=none;dashed=1;html=1;rounded=0;" edge="1" parent="1" source="BZC8KsCl4TNFc6Lqy8Sw-34" target="BZC8KsCl4TNFc6Lqy8Sw-163">
          <mxGeometry width="50" height="50" relative="1" as="geometry">
            <mxPoint x="1370" y="960" as="sourcePoint" />
            <mxPoint x="1420" y="910" as="targetPoint" />
          </mxGeometry>
        </mxCell>
        <mxCell id="BZC8KsCl4TNFc6Lqy8Sw-168" value="" style="endArrow=none;dashed=1;html=1;rounded=0;" edge="1" parent="1" source="BZC8KsCl4TNFc6Lqy8Sw-48" target="BZC8KsCl4TNFc6Lqy8Sw-163">
          <mxGeometry width="50" height="50" relative="1" as="geometry">
            <mxPoint x="310" y="1060" as="sourcePoint" />
            <mxPoint x="360" y="1010" as="targetPoint" />
            <Array as="points">
              <mxPoint x="560" y="900" />
            </Array>
          </mxGeometry>
        </mxCell>
        <mxCell id="BZC8KsCl4TNFc6Lqy8Sw-169" value="" style="endArrow=none;dashed=1;html=1;rounded=0;" edge="1" parent="1" source="BZC8KsCl4TNFc6Lqy8Sw-47" target="BZC8KsCl4TNFc6Lqy8Sw-163">
          <mxGeometry width="50" height="50" relative="1" as="geometry">
            <mxPoint x="600" y="890" as="sourcePoint" />
            <mxPoint x="650" y="840" as="targetPoint" />
            <Array as="points">
              <mxPoint x="570" y="830" />
            </Array>
          </mxGeometry>
        </mxCell>
        <mxCell id="BZC8KsCl4TNFc6Lqy8Sw-170" value="" style="endArrow=none;dashed=1;html=1;rounded=0;" edge="1" parent="1" source="BZC8KsCl4TNFc6Lqy8Sw-163" target="BZC8KsCl4TNFc6Lqy8Sw-44">
          <mxGeometry width="50" height="50" relative="1" as="geometry">
            <mxPoint x="570" y="810" as="sourcePoint" />
            <mxPoint x="620" y="760" as="targetPoint" />
            <Array as="points">
              <mxPoint x="570" y="740" />
            </Array>
          </mxGeometry>
        </mxCell>
        <mxCell id="BZC8KsCl4TNFc6Lqy8Sw-171" value="" style="endArrow=none;dashed=1;html=1;rounded=0;" edge="1" parent="1" source="BZC8KsCl4TNFc6Lqy8Sw-46" target="BZC8KsCl4TNFc6Lqy8Sw-163">
          <mxGeometry width="50" height="50" relative="1" as="geometry">
            <mxPoint x="580" y="860" as="sourcePoint" />
            <mxPoint x="630" y="810" as="targetPoint" />
            <Array as="points">
              <mxPoint x="560" y="640" />
            </Array>
          </mxGeometry>
        </mxCell>
        <mxCell id="BZC8KsCl4TNFc6Lqy8Sw-172" value="" style="endArrow=none;dashed=1;html=1;rounded=0;" edge="1" parent="1" source="BZC8KsCl4TNFc6Lqy8Sw-45" target="BZC8KsCl4TNFc6Lqy8Sw-163">
          <mxGeometry width="50" height="50" relative="1" as="geometry">
            <mxPoint x="590" y="820" as="sourcePoint" />
            <mxPoint x="640" y="770" as="targetPoint" />
            <Array as="points">
              <mxPoint x="570" y="520" />
            </Array>
          </mxGeometry>
        </mxCell>
        <mxCell id="BZC8KsCl4TNFc6Lqy8Sw-175" value="" style="endArrow=none;dashed=1;html=1;rounded=0;" edge="1" parent="1" source="BZC8KsCl4TNFc6Lqy8Sw-173" target="BZC8KsCl4TNFc6Lqy8Sw-163">
          <mxGeometry width="50" height="50" relative="1" as="geometry">
            <mxPoint x="510" y="1080" as="sourcePoint" />
            <mxPoint x="583" y="1150" as="targetPoint" />
            <Array as="points">
              <mxPoint x="560" y="980" />
            </Array>
          </mxGeometry>
        </mxCell>
      </root>
    </mxGraphModel>
  </diagram>
</mxfile>
